# xmcd CD database file
#
# Track frame offsets:
#	150
#	20178
#	36664
#	53414
#	68966
#	93632
#	109652
#	130546
#	143400
#	155005
#	171187
#	187480
#	203994
#	222472
#	238120
#	260213
#	278763
#	298193
#	316366
#	331951
#
# Disc length: 4705 seconds
#
# Revision: 0
# Processed by: cddbd v1.5.1PL0 Copyright (c) Steve Scherf et al.
# Submitted via: CDex 1.51
#
DISCID=45125f14
DTITLE=Eric Bibb - Live At Sunset Tavern, Seattle 19/11/02
DYEAR=2002
DGENRE=Blues
TTITLE0=Goin' Down Slow
TTITLE1=Shingle By Shingle
TTITLE2=Saucer 'n' Cup
TTITLE3=Good Stuff
TTITLE4=No More Cane On The Brazos
TTITLE5=Got To Do Better
TTITLE6=Needed Time
TTITLE7=Lonesome Valley
TTITLE8=Gonna Walk This Road
TTITLE9=Don't Ever Let Nobody Drag Your Spirit Down
TTITLE10=Kokomo
TTITLE11=Panama Hat
TTITLE12=To Know You
TTITLE13=Champagne Habits
TTITLE14=Come Back Baby
TTITLE15=Circles
TTITLE16=Right On Time
TTITLE17=I Heard The Angels Singin'
TTITLE18=Singing In My Heart
TTITLE19=Needed Time
EXTD=YEAR: 2002
EXTT0=
EXTT1=
EXTT2=
EXTT3=
EXTT4=
EXTT5=
EXTT6=
EXTT7=
EXTT8=
EXTT9=
EXTT10=
EXTT11=
EXTT12=
EXTT13=
EXTT14=
EXTT15=
EXTT16=
EXTT17=
EXTT18=
EXTT19=
PLAYORDER=
